<?xml version="1.0" standalone="yes"?>

<svg version="1.1" viewBox="0.0 0.0 960.0 540.0" fill="none" stroke="none" stroke-linecap="square" stroke-miterlimit="10" xmlns="http://www.w3.org/2000/svg" xmlns:xlink="http://www.w3.org/1999/xlink"><clipPath id="g1cd9f7c7da_0_375.0"><path d="m0 0l960.0 0l0 540.0l-960.0 0l0 -540.0z" clip-rule="nonzero"></path></clipPath><g clip-path="url(#g1cd9f7c7da_0_375.0)"><path fill="#ffffff" d="m0 0l960.0 0l0 540.0l-960.0 0z" fill-rule="nonzero"></path><path fill="#000000" fill-opacity="0.0" d="m129.52757 162.25197l700.9449 0l0 215.49605l-700.9449 0z" fill-rule="nonzero"></path><path fill="#000000" d="m217.24666 295.06l0 -49.390625l6.546875 0l0 43.5625l24.328125 0l0 5.828125l-30.875 0zm62.55699 -11.515625l6.265625 0.765625q-1.484375 5.5 -5.5 8.53125q-4.0 3.03125 -10.234375 3.03125q-7.859375 0 -12.453125 -4.828125q-4.5937347 -4.84375 -4.5937347 -13.578125q0 -9.015625 4.6406097 -14.0q4.65625 -5.0 12.0625 -5.0q7.1875 0 11.734375 4.890625q4.546875 4.890625 4.546875 13.75q0 0.53125 -0.03125 1.609375l-26.6875 0q0.328125 5.90625 3.328125 9.046875q3.0 3.125 7.484375 3.125q3.328125 0 5.6875 -1.75q2.359375 -1.765625 3.75 -5.59375zm-19.921875 -9.8125l19.984375 0q-0.40625 -4.515625 -2.296875 -6.765625q-2.890625 -3.515625 -7.5 -3.515625q-4.1875 0 -7.03125 2.796875q-2.84375 2.796875 -3.15625 7.484375zm47.22888 15.90625l0.875 5.359375q-2.5625 0.53125 -4.59375 0.53125q-3.296875 0 -5.125 -1.046875q-1.8125 -1.046875 -2.5625 -2.734375q-0.734375 -1.703125 -0.734375 -7.171875l0 -20.578125l-4.4375 0l0 -4.71875l4.4375 0l0 -8.859375l6.03125 -3.640625l0 12.5l6.109375 0l0 4.71875l-6.109375 0l0 20.921875q0 2.59375 0.3125 3.34375q0.328125 0.734375 1.046875 1.171875q0.734375 0.4375 2.078125 0.4375q1.015625 0 2.671875 -0.234375zm5.6365967 -37.4375l0 -7.03125l6.515625 0l0 5.546875q0 4.515625 -1.046875 6.515625q-1.453125 2.71875 -4.515625 4.109375l-1.484375 -2.40625q1.8125 -0.734375 2.703125 -2.328125q0.90625 -1.609375 1.0 -4.40625l-3.171875 0zm13.355621 32.171875l6.0 -0.9375q0.5 3.609375 2.796875 5.53125q2.3125 1.921875 6.46875 1.921875q4.171875 0 6.1875 -1.703125q2.03125 -1.703125 2.03125 -4.0q0 -2.046875 -1.796875 -3.234375q-1.234375 -0.8125 -6.1875 -2.046875q-6.671875 -1.6875 -9.25 -2.921875q-2.578125 -1.234375 -3.90625 -3.40625q-1.328125 -2.171875 -1.328125 -4.796875q0 -2.390625 1.09375 -4.421875q1.09375 -2.046875 2.96875 -3.390625q1.421875 -1.046875 3.859375 -1.765625q2.453125 -0.734375 5.25 -0.734375q4.203125 0 7.390625 1.21875q3.1875 1.21875 4.703125 3.296875q1.515625 2.0625 2.078125 5.53125l-5.921875 0.8125q-0.40625 -2.765625 -2.34375 -4.3125q-1.9375 -1.5625 -5.46875 -1.5625q-4.1875 0 -5.96875 1.390625q-1.78125 1.375 -1.78125 3.234375q0 1.171875 0.734375 2.125q0.75 0.96875 2.328125 1.609375q0.90625 0.34375 5.359375 1.546875q6.4375 1.71875 8.96875 2.8125q2.546875 1.09375 4.0 3.1875q1.453125 2.09375 1.453125 5.1875q0 3.03125 -1.78125 5.71875q-1.765625 2.671875 -5.109375 4.140625q-3.328125 1.46875 -7.53125 1.46875q-6.984375 0 -10.640625 -2.890625q-3.640625 -2.90625 -4.65625 -8.609375zm57.80063 10.6875l0 -31.0625l-5.359375 0l0 -4.71875l5.359375 0l0 -3.8125q0 -3.59375 0.640625 -5.34375q0.875 -2.359375 3.078125 -3.828125q2.203125 -1.46875 6.1875 -1.46875q2.5625 0 5.65625 0.609375l-0.90625 5.28125q-1.890625 -0.328125 -3.578125 -0.328125q-2.765625 0 -3.90625 1.1875q-1.140625 1.171875 -1.140625 4.40625l0 3.296875l6.96875 0l0 4.71875l-6.96875 0l0 31.0625l-6.03125 0zm15.558441 -17.890625q0 -9.9375 5.515625 -14.71875q4.625 -3.984375 11.25 -3.984375q7.390625 0 12.0625 4.84375q4.6875 4.828125 4.6875 13.359375q0 6.90625 -2.078125 10.859375q-2.0625 3.953125 -6.03125 6.15625q-3.953125 2.1875 -8.640625 2.1875q-7.5 0 -12.140625 -4.8125q-4.625 -4.828125 -4.625 -13.890625zm6.234375 0q0 6.875 2.984375 10.296875q3.0 3.421875 7.546875 3.421875q4.515625 0 7.515625 -3.4375q3.0 -3.4375 3.0 -10.484375q0 -6.640625 -3.015625 -10.046875q-3.015625 -3.421875 -7.5 -3.421875q-4.546875 0 -7.546875 3.40625q-2.984375 3.390625 -2.984375 10.265625zm34.51013 17.890625l0 -35.78125l5.453125 0l0 5.421875q2.09375 -3.796875 3.859375 -5.015625q1.765625 -1.21875 3.890625 -1.21875q3.0625 0 6.234375 1.953125l-2.09375 5.625q-2.21875 -1.3125 -4.4375 -1.3125q-2.0 0 -3.578125 1.203125q-1.578125 1.1875 -2.25 3.3125q-1.015625 3.234375 -1.015625 7.078125l0 18.734375l-6.0625 0zm23.149323 0l0 -35.78125l5.421875 0l0 5.015625q1.6875 -2.625 4.484375 -4.21875q2.796875 -1.609375 6.375 -1.609375q3.96875 0 6.515625 1.65625q2.546875 1.65625 3.578125 4.609375q4.25 -6.265625 11.0625 -6.265625q5.3125 0 8.171875 2.953125q2.875 2.953125 2.875 9.078125l0 24.5625l-6.03125 0l0 -22.546875q0 -3.625 -0.59375 -5.21875q-0.578125 -1.609375 -2.140625 -2.578125q-1.546875 -0.984375 -3.640625 -0.984375q-3.765625 0 -6.265625 2.515625q-2.484375 2.5 -2.484375 8.03125l0 20.78125l-6.0625 0l0 -23.25q0 -4.046875 -1.484375 -6.0625q-1.484375 -2.015625 -4.859375 -2.015625q-2.5625 0 -4.734375 1.34375q-2.171875 1.34375 -3.15625 3.9375q-0.96875 2.59375 -0.96875 7.484375l0 18.5625l-6.0625 0zm75.903076 2.96875l5.890625 0.875q0.375 2.71875 2.0625 3.96875q2.25 1.6875 6.15625 1.6875q4.21875 0 6.5 -1.6875q2.296875 -1.6875 3.109375 -4.71875q0.46875 -1.84375 0.4375 -7.78125q-3.96875 4.6875 -9.90625 4.6875q-7.375 0 -11.421875 -5.3125q-4.046875 -5.328125 -4.046875 -12.78125q0 -5.125 1.859375 -9.453125q1.859375 -4.328125 5.375 -6.6875q3.515625 -2.359375 8.265625 -2.359375q6.34375 0 10.453125 5.125l0 -4.3125l5.59375 0l0 30.921875q0 8.359375 -1.703125 11.84375q-1.703125 3.5 -5.390625 5.515625q-3.6875 2.015625 -9.078125 2.015625q-6.40625 0 -10.359375 -2.875q-3.9375 -2.875 -3.796875 -8.671875zm5.015625 -21.5q0 7.046875 2.796875 10.28125q2.796875 3.234375 7.015625 3.234375q4.171875 0 7.0 -3.21875q2.828125 -3.21875 2.828125 -10.09375q0 -6.5625 -2.921875 -9.890625q-2.90625 -3.34375 -7.015625 -3.34375q-4.046875 0 -6.875 3.28125q-2.828125 3.28125 -2.828125 9.75zm34.588257 18.53125l0 -35.78125l5.453125 0l0 5.421875q2.09375 -3.796875 3.859375 -5.015625q1.765625 -1.21875 3.890625 -1.21875q3.0625 0 6.234375 1.953125l-2.09375 5.625q-2.21875 -1.3125 -4.4375 -1.3125q-2.0 0 -3.578125 1.203125q-1.578125 1.1875 -2.25 3.3125q-1.015625 3.234375 -1.015625 7.078125l0 18.734375l-6.0625 0zm20.899292 -17.890625q0 -9.9375 5.515625 -14.71875q4.625 -3.984375 11.25 -3.984375q7.390625 0 12.0625 4.84375q4.6875 4.828125 4.6875 13.359375q0 6.90625 -2.078125 10.859375q-2.0625 3.953125 -6.03125 6.15625q-3.953125 2.1875 -8.640625 2.1875q-7.5 0 -12.140625 -4.8125q-4.625 -4.828125 -4.625 -13.890625zm6.234375 0q0 6.875 2.984375 10.296875q3.0 3.421875 7.546875 3.421875q4.515625 0 7.515625 -3.4375q3.0 -3.4375 3.0 -10.484375q0 -6.640625 -3.015625 -10.046875q-3.015625 -3.421875 -7.5 -3.421875q-4.546875 0 -7.546875 3.40625q-2.984375 3.390625 -2.984375 10.265625zm58.025818 17.890625l0 -5.25q-4.1875 6.0625 -11.359375 6.0625q-3.15625 0 -5.90625 -1.21875q-2.75 -1.21875 -4.078125 -3.046875q-1.328186 -1.84375 -1.875061 -4.5q-0.375 -1.78125 -0.375 -5.65625l0 -22.171875l6.078186 0l0 19.84375q0 4.75 0.359375 6.40625q0.578125 2.390625 2.421875 3.765625q1.859375 1.359375 4.59375 1.359375q2.71875 0 5.109375 -1.390625q2.40625 -1.40625 3.390625 -3.8125q1.0 -2.421875 1.0 -7.0l0 -19.171875l6.0625 0l0 35.78125l-5.421875 0zm15.103882 13.71875l0 -49.5l5.53125 0l0 4.65625q1.953125 -2.734375 4.40625 -4.09375q2.46875 -1.375 5.96875 -1.375q4.578125 0 8.078125 2.359375q3.515625 2.359375 5.296875 6.65625q1.78125 4.296875 1.78125 9.421875q0 5.484375 -1.96875 9.890625q-1.96875 4.390625 -5.734375 6.734375q-3.75 2.34375 -7.890625 2.34375q-3.03125 0 -5.453125 -1.28125q-2.40625 -1.28125 -3.953125 -3.234375l0 17.421875l-6.0625 0zm5.5 -31.40625q0 6.90625 2.796875 10.21875q2.796875 3.296875 6.765625 3.296875q4.046875 0 6.921875 -3.421875q2.875 -3.421875 2.875 -10.59375q0 -6.84375 -2.8125 -10.25q-2.8125 -3.40625 -6.71875 -3.40625q-3.875 0 -6.859375 3.625q-2.96875 3.625 -2.96875 10.53125zm30.635132 7.0l6.0 -0.9375q0.5 3.609375 2.796875 5.53125q2.3125 1.921875 6.46875 1.921875q4.171875 0 6.1875 -1.703125q2.03125 -1.703125 2.03125 -4.0q0 -2.046875 -1.796875 -3.234375q-1.234375 -0.8125 -6.1875 -2.046875q-6.671875 -1.6875 -9.25 -2.921875q-2.578125 -1.234375 -3.90625 -3.40625q-1.328125 -2.171875 -1.328125 -4.796875q0 -2.390625 1.09375 -4.421875q1.09375 -2.046875 2.96875 -3.390625q1.421875 -1.046875 3.859375 -1.765625q2.453125 -0.734375 5.25 -0.734375q4.203125 0 7.390625 1.21875q3.1875 1.21875 4.703125 3.296875q1.515625 2.0625 2.078125 5.53125l-5.921875 0.8125q-0.40625 -2.765625 -2.34375 -4.3125q-1.9375 -1.5625 -5.46875 -1.5625q-4.1875 0 -5.96875 1.390625q-1.78125 1.375 -1.78125 3.234375q0 1.171875 0.734375 2.125q0.75 0.96875 2.328125 1.609375q0.90625 0.34375 5.359375 1.546875q6.4375 1.71875 8.96875 2.8125q2.546875 1.09375 4.0 3.1875q1.453125 2.09375 1.453125 5.1875q0 3.03125 -1.78125 5.71875q-1.765625 2.671875 -5.109375 4.140625q-3.328125 1.46875 -7.53125 1.46875q-6.984375 0 -10.640625 -2.890625q-3.640625 -2.90625 -4.65625 -8.609375z" fill-rule="nonzero"></path></g></svg>

