<?xml version="1.0" standalone="yes"?>

<svg version="1.1" viewBox="0.0 0.0 960.0 540.0" fill="none" stroke="none" stroke-linecap="square" stroke-miterlimit="10" xmlns="http://www.w3.org/2000/svg" xmlns:xlink="http://www.w3.org/1999/xlink"><clipPath id="g20d312069f_0_255.0"><path d="m0 0l960.0 0l0 540.0l-960.0 0l0 -540.0z" clip-rule="nonzero"></path></clipPath><g clip-path="url(#g20d312069f_0_255.0)"><path fill="#ffffff" d="m0 0l960.0 0l0 540.0l-960.0 0z" fill-rule="nonzero"></path><path fill="#000000" fill-opacity="0.0" d="m129.52757 162.25197l700.9449 0l0 215.49605l-700.9449 0z" fill-rule="nonzero"></path><path fill="#000000" d="m173.54903 295.06l18.96875 -49.390625l7.03125 0l20.21875 49.390625l-7.453125 0l-5.75 -14.953125l-20.65625 0l-5.421875 14.953125l-6.9375 0zm14.25 -20.28125l16.734375 0l-5.15625 -13.6875q-2.359375 -6.21875 -3.5 -10.234375q-0.9375 4.75 -2.65625 9.4375l-5.421875 14.484375zm79.23726 7.171875l5.96875 0.78125q-0.96875 6.15625 -5.0 9.65625q-4.03125 3.484375 -9.890625 3.484375q-7.3437347 0 -11.812485 -4.796875q-4.453125 -4.8125 -4.453125 -13.765625q0 -5.796875 1.90625 -10.140625q1.921875 -4.359375 5.84375 -6.53125q3.9375 -2.171875 8.54686 -2.171875q5.828125 0 9.53125 2.953125q3.71875 2.953125 4.75 8.375l-5.890625 0.90625q-0.84375 -3.609375 -2.984375 -5.421875q-2.140625 -1.828125 -5.171875 -1.828125q-4.5781097 0 -7.4531097 3.296875q-2.859375 3.28125 -2.859375 10.390625q0 7.203125 2.765625 10.484375q2.765625 3.265625 7.2187347 3.265625q3.5625 0 5.953125 -2.1875q2.390625 -2.203125 3.03125 -6.75zm9.0703125 -4.78125q0 -9.9375 5.515625 -14.71875q4.625 -3.984375 11.25 -3.984375q7.390625 0 12.0625 4.84375q4.6875 4.828125 4.6875 13.359375q0 6.90625 -2.078125 10.859375q-2.0625 3.953125 -6.03125 6.15625q-3.953125 2.1875 -8.640625 2.1875q-7.5 0 -12.140625 -4.8125q-4.625 -4.828125 -4.625 -13.890625zm6.234375 0q0 6.875 2.984375 10.296875q3.0 3.421875 7.546875 3.421875q4.515625 0 7.515625 -3.4375q3.0 -3.4375 3.0 -10.484375q0 -6.640625 -3.015625 -10.046875q-3.015625 -3.421875 -7.5 -3.421875q-4.546875 0 -7.546875 3.40625q-2.984375 3.390625 -2.984375 10.265625zm34.57263 17.890625l0 -35.78125l5.453125 0l0 5.09375q3.953125 -5.90625 11.390625 -5.90625q3.234375 0 5.9375 1.171875q2.71875 1.15625 4.0625 3.046875q1.359375 1.890625 1.890625 4.484375q0.34375 1.671875 0.34375 5.890625l0 22.0l-6.0625 0l0 -21.765625q0 -3.703125 -0.71875 -5.53125q-0.703125 -1.84375 -2.5 -2.9375q-1.796875 -1.09375 -4.234375 -1.09375q-3.875 0 -6.6875 2.453125q-2.8125 2.453125 -2.8125 9.328125l0 19.546875l-6.0625 0zm61.900757 -13.109375l5.96875 0.78125q-0.96875 6.15625 -5.0 9.65625q-4.03125 3.484375 -9.890625 3.484375q-7.34375 0 -11.8125 -4.796875q-4.453125 -4.8125 -4.453125 -13.765625q0 -5.796875 1.90625 -10.140625q1.921875 -4.359375 5.84375 -6.53125q3.9375 -2.171875 8.546875 -2.171875q5.828125 0 9.53125 2.953125q3.71875 2.953125 4.75 8.375l-5.890625 0.90625q-0.84375 -3.609375 -2.984375 -5.421875q-2.140625 -1.828125 -5.171875 -1.828125q-4.578125 0 -7.453125 3.296875q-2.859375 3.28125 -2.859375 10.390625q0 7.203125 2.765625 10.484375q2.765625 3.265625 7.21875 3.265625q3.5625 0 5.953125 -2.1875q2.390625 -2.203125 3.03125 -6.75zm11.2578125 13.109375l0 -35.78125l5.453125 0l0 5.421875q2.09375 -3.796875 3.859375 -5.015625q1.765625 -1.21875 3.890625 -1.21875q3.0625 0 6.234375 1.953125l-2.09375 5.625q-2.21875 -1.3125 -4.4375 -1.3125q-2.0 0 -3.578125 1.203125q-1.578125 1.1875 -2.25 3.3125q-1.015625 3.234375 -1.015625 7.078125l0 18.734375l-6.0625 0zm47.649292 -11.515625l6.265625 0.765625q-1.484375 5.5 -5.5 8.53125q-4.0 3.03125 -10.234375 3.03125q-7.859375 0 -12.453125 -4.828125q-4.59375 -4.84375 -4.59375 -13.578125q0 -9.015625 4.640625 -14.0q4.65625 -5.0 12.0625 -5.0q7.1875 0 11.734375 4.890625q4.546875 4.890625 4.546875 13.75q0 0.53125 -0.03125 1.609375l-26.6875 0q0.328125 5.90625 3.328125 9.046875q3.0 3.125 7.484375 3.125q3.328125 0 5.6875 -1.75q2.359375 -1.765625 3.75 -5.59375zm-19.921875 -9.8125l19.984375 0q-0.40625 -4.515625 -2.296875 -6.765625q-2.890625 -3.515625 -7.5 -3.515625q-4.1875 0 -7.03125 2.796875q-2.84375 2.796875 -3.15625 7.484375zm47.228912 15.90625l0.875 5.359375q-2.5625 0.53125 -4.59375 0.53125q-3.296875 0 -5.125 -1.046875q-1.8125 -1.046875 -2.5625 -2.734375q-0.734375 -1.703125 -0.734375 -7.171875l0 -20.578125l-4.4375 0l0 -4.71875l4.4375 0l0 -8.859375l6.03125 -3.640625l0 12.5l6.109375 0l0 4.71875l-6.109375 0l0 20.921875q0 2.59375 0.3125 3.34375q0.328125 0.734375 1.046875 1.171875q0.734375 0.4375 2.078125 0.4375q1.015625 0 2.671875 -0.234375zm30.511597 -6.09375l6.265625 0.765625q-1.484375 5.5 -5.5 8.53125q-4.0 3.03125 -10.234375 3.03125q-7.859375 0 -12.453125 -4.828125q-4.59375 -4.84375 -4.59375 -13.578125q0 -9.015625 4.640625 -14.0q4.65625 -5.0 12.0625 -5.0q7.1875 0 11.734375 4.890625q4.546875 4.890625 4.546875 13.75q0 0.53125 -0.03125 1.609375l-26.6875 0q0.328125 5.90625 3.328125 9.046875q3.0 3.125 7.484375 3.125q3.328125 0 5.6875 -1.75q2.359375 -1.765625 3.75 -5.59375zm-19.921875 -9.8125l19.984375 0q-0.40625 -4.515625 -2.296875 -6.765625q-2.890625 -3.515625 -7.5 -3.515625q-4.1875 0 -7.03125 2.796875q-2.84375 2.796875 -3.15625 7.484375zm77.74048 9.8125l6.265625 0.765625q-1.484375 5.5 -5.5 8.53125q-4.0 3.03125 -10.234375 3.03125q-7.859375 0 -12.453125 -4.828125q-4.59375 -4.84375 -4.59375 -13.578125q0 -9.015625 4.640625 -14.0q4.65625 -5.0 12.0625 -5.0q7.1875 0 11.734375 4.890625q4.546875 4.890625 4.546875 13.75q0 0.53125 -0.03125 1.609375l-26.6875 0q0.328125 5.90625 3.328125 9.046875q3.0 3.125 7.484375 3.125q3.328125 0 5.6875 -1.75q2.359375 -1.765625 3.75 -5.59375zm-19.921875 -9.8125l19.984375 0q-0.40625 -4.515625 -2.296875 -6.765625q-2.890625 -3.515625 -7.5 -3.515625q-4.1875 0 -7.03125 2.796875q-2.84375 2.796875 -3.15625 7.484375zm29.932007 21.328125l13.078125 -18.59375l-12.09375 -17.1875l7.578125 0l5.5 8.390625q1.546875 2.390625 2.484375 4.015625q1.484375 -2.234375 2.734375 -3.953125l6.03125 -8.453125l7.234375 0l-12.359375 16.84375l13.3125 18.9375l-7.453125 0l-7.34375 -11.125l-1.953125 -2.984375l-9.40625 14.109375l-7.34375 0zm62.054688 -4.40625q-3.359375 2.859375 -6.484375 4.046875q-3.109375 1.171875 -6.6875 1.171875q-5.890625 0 -9.0625 -2.875q-3.15625 -2.890625 -3.15625 -7.375q0 -2.625 1.1875 -4.796875q1.203125 -2.171875 3.140625 -3.484375q1.9375 -1.3125 4.359375 -1.984375q1.78125 -0.484375 5.390625 -0.921875q7.34375 -0.875 10.8125 -2.078125q0.03125 -1.25 0.03125 -1.59375q0 -3.703125 -1.71875 -5.21875q-2.328125 -2.046875 -6.90625 -2.046875q-4.28125 0 -6.328125 1.5q-2.03125 1.484375 -3.0 5.296875l-5.9375 -0.8125q0.8125 -3.796875 2.65625 -6.140625q1.859375 -2.34375 5.359375 -3.609375q3.515625 -1.265625 8.125 -1.265625q4.59375 0 7.453125 1.078125q2.859375 1.078125 4.203125 2.71875q1.359375 1.625 1.890625 4.125q0.296875 1.546875 0.296875 5.59375l0 8.078125q0 8.46875 0.390625 10.703125q0.390625 2.234375 1.53125 4.296875l-6.328125 0q-0.9375 -1.890625 -1.21875 -4.40625zm-0.5 -13.546875q-3.296875 1.34375 -9.90625 2.28125q-3.734375 0.546875 -5.296875 1.21875q-1.546875 0.671875 -2.390625 1.96875q-0.828125 1.296875 -0.828125 2.875q0 2.4375 1.828125 4.0625q1.84375 1.609375 5.375 1.609375q3.5 0 6.234375 -1.53125q2.734375 -1.546875 4.015625 -4.203125q0.96875 -2.046875 0.96875 -6.0625l0 -2.21875zm15.713257 17.953125l0 -35.78125l5.421936 0l0 5.015625q1.6875 -2.625 4.484375 -4.21875q2.796875 -1.609375 6.375 -1.609375q3.96875 0 6.515625 1.65625q2.546875 1.65625 3.578125 4.609375q4.25 -6.265625 11.0625 -6.265625q5.3125 0 8.171875 2.953125q2.875 2.953125 2.875 9.078125l0 24.5625l-6.03125 0l0 -22.546875q0 -3.625 -0.59375 -5.21875q-0.578125 -1.609375 -2.140625 -2.578125q-1.546875 -0.984375 -3.640625 -0.984375q-3.765625 0 -6.265625 2.515625q-2.484375 2.5 -2.484375 8.03125l0 20.78125l-6.0625 0l0 -23.25q0 -4.046875 -1.484375 -6.0625q-1.484375 -2.015625 -4.859375 -2.015625q-2.5625 0 -4.734375 1.34375q-2.171875 1.34375 -3.15625 3.9375q-0.96875 2.59375 -0.96875 7.484375l0 18.5625l-6.062561 0zm57.750916 13.71875l0 -49.5l5.53125 0l0 4.65625q1.953125 -2.734375 4.40625 -4.09375q2.46875 -1.375 5.96875 -1.375q4.578125 0 8.078125 2.359375q3.515625 2.359375 5.296875 6.65625q1.78125 4.296875 1.78125 9.421875q0 5.484375 -1.96875 9.890625q-1.96875 4.390625 -5.734375 6.734375q-3.75 2.34375 -7.890625 2.34375q-3.03125 0 -5.453125 -1.28125q-2.40625 -1.28125 -3.953125 -3.234375l0 17.421875l-6.0625 0zm5.5 -31.40625q0 6.90625 2.796875 10.21875q2.796875 3.296875 6.765625 3.296875q4.046875 0 6.921875 -3.421875q2.875 -3.421875 2.875 -10.59375q0 -6.84375 -2.8125 -10.25q-2.8125 -3.40625 -6.71875 -3.40625q-3.875 0 -6.859375 3.625q-2.96875 3.625 -2.96875 10.53125zm32.91638 17.6875l0 -49.390625l6.078125 0l0 49.390625l-6.078125 0zm40.04309 -11.515625l6.265625 0.765625q-1.484375 5.5 -5.5 8.53125q-4.0 3.03125 -10.234375 3.03125q-7.859375 0 -12.453125 -4.828125q-4.59375 -4.84375 -4.59375 -13.578125q0 -9.015625 4.640625 -14.0q4.65625 -5.0 12.0625 -5.0q7.1875 0 11.734375 4.890625q4.546875 4.890625 4.546875 13.75q0 0.53125 -0.03125 1.609375l-26.6875 0q0.328125 5.90625 3.328125 9.046875q3.0 3.125 7.484375 3.125q3.328125 0 5.6875 -1.75q2.359375 -1.765625 3.75 -5.59375zm-19.921875 -9.8125l19.984375 0q-0.40625 -4.515625 -2.296875 -6.765625q-2.890625 -3.515625 -7.5 -3.515625q-4.1875 0 -7.03125 2.796875q-2.84375 2.796875 -3.15625 7.484375z" fill-rule="nonzero"></path></g></svg>

