<?xml version="1.0" standalone="yes"?>

<svg version="1.1" viewBox="0.0 0.0 960.0 540.0" fill="none" stroke="none" stroke-linecap="square" stroke-miterlimit="10" xmlns="http://www.w3.org/2000/svg" xmlns:xlink="http://www.w3.org/1999/xlink"><clipPath id="g20d312069f_0_74.0"><path d="m0 0l960.0 0l0 540.0l-960.0 0l0 -540.0z" clip-rule="nonzero"></path></clipPath><g clip-path="url(#g20d312069f_0_74.0)"><path fill="#ffffff" d="m0 0l960.0 0l0 540.0l-960.0 0z" fill-rule="nonzero"></path><path fill="#000000" fill-opacity="0.0" d="m129.52757 162.25197l700.9449 0l0 215.49605l-700.9449 0z" fill-rule="nonzero"></path><path fill="#000000" d="m234.48738 253.43303l6.171875 -0.53125q0.4375 3.7031403 2.03125 6.0781403q1.609375 2.375 4.96875 3.84375q3.375 1.46875 7.59375 1.46875q3.7343597 0 6.5937347 -1.109375q2.875 -1.125 4.265625 -3.0625q1.40625 -1.9375 1.40625 -4.2187653q0 -2.328125 -1.359375 -4.0625q-1.34375 -1.734375 -4.4375 -2.921875q-2.0 -0.765625 -8.812485 -2.390625q-6.796875 -1.640625 -9.515625 -3.09375q-3.546875 -1.859375 -5.28125 -4.59375q-1.734375 -2.75 -1.734375 -6.15625q0 -3.734375 2.125 -6.984375q2.125 -3.25 6.203125 -4.9375q4.078125 -1.6875 9.0625 -1.6875q5.4843597 0 9.67186 1.765625q4.203125 1.765625 6.453125 5.203125q2.265625 3.4375 2.4375 7.78125l-6.265625 0.484375q-0.515625 -4.6875 -3.4375 -7.078125q-2.90625 -2.390625 -8.593735 -2.390625q-5.921875 0 -8.640625 2.171875q-2.71875 2.171875 -2.71875 5.234375q0 2.65625 1.921875 4.375q1.890625 1.71875 9.859375 3.53125q7.9687347 1.796875 10.937485 3.140625q4.3125 2.0 6.359375 5.046875q2.0625 3.046875 2.0625 7.015625q0 3.9531403 -2.265625 7.4375153q-2.25 3.484375 -6.484375 5.421875q-4.21875 1.9375 -9.51561 1.9375q-6.703125 0 -11.234375 -1.953125q-4.53125 -1.953125 -7.109375 -5.875q-2.578125 -3.9375 -2.71875 -8.89064zm45.444443 -2.015625q0 -9.9375 5.515625 -14.71875q4.625 -3.984375 11.25 -3.984375q7.390625 0 12.0625 4.84375q4.6875 4.828125 4.6875 13.359375q0 6.9062653 -2.078125 10.85939q-2.0625 3.953125 -6.03125 6.15625q-3.953125 2.1875 -8.640625 2.1875q-7.5 0 -12.140625 -4.8125q-4.625 -4.828125 -4.625 -13.89064zm6.234375 0q0 6.8750153 2.984375 10.29689q3.0 3.421875 7.546875 3.421875q4.515625 0 7.515625 -3.4375q3.0 -3.4375 3.0 -10.48439q0 -6.640625 -3.015625 -10.046875q-3.015625 -3.421875 -7.5 -3.421875q-4.546875 0 -7.546875 3.40625q-2.984375 3.390625 -2.984375 10.265625zm53.834198 17.89064l0 -49.39064l6.0625 0l0 17.71875q4.25 -4.921875 10.71875 -4.921875q3.96875 0 6.90625 1.578125q2.9375 1.5625 4.1875 4.328125q1.265625 2.75 1.265625 8.015625l0 22.67189l-6.0625 0l0 -22.67189q0 -4.546875 -1.96875 -6.609375q-1.96875 -2.078125 -5.578125 -2.078125q-2.6875 0 -5.0625 1.390625q-2.375 1.390625 -3.390625 3.796875q-1.015625 2.390625 -1.015625 6.59375l0 19.57814l-6.0625 0zm36.307007 -17.89064q0 -9.9375 5.515625 -14.71875q4.625 -3.984375 11.25 -3.984375q7.390625 0 12.0625 4.84375q4.6875 4.828125 4.6875 13.359375q0 6.9062653 -2.078125 10.85939q-2.0625 3.953125 -6.03125 6.15625q-3.953125 2.1875 -8.640625 2.1875q-7.5 0 -12.140625 -4.8125q-4.625 -4.828125 -4.625 -13.89064zm6.234375 0q0 6.8750153 2.984375 10.29689q3.0 3.421875 7.546875 3.421875q4.515625 0 7.515625 -3.4375q3.0 -3.4375 3.0 -10.48439q0 -6.640625 -3.015625 -10.046875q-3.015625 -3.421875 -7.5 -3.421875q-4.546875 0 -7.546875 3.40625q-2.984375 3.390625 -2.984375 10.265625zm41.182007 17.89064l-10.953125 -35.781265l6.265625 0l5.6875 20.65625l2.125 7.6718903q0.140625 -0.5625 1.859375 -7.3750153l5.6875 -20.953125l6.234375 0l5.359375 20.75l1.78125 6.8437653l2.0625 -6.9062653l6.125 -20.6875l5.90625 0l-11.1875 35.781265l-6.296875 0l-5.703125 -21.42189l-1.375 -6.109375l-7.25 27.531265l-6.328125 0zm85.9375 0l0 -4.515625q-3.40625 5.328125 -10.015625 5.328125q-4.265625 0 -7.859375 -2.359375q-3.59375 -2.359375 -5.5625 -6.578125q-1.96875 -4.234375 -1.96875 -9.73439q0 -5.359375 1.78125 -9.71875q1.796875 -4.359375 5.359375 -6.6875q3.578125 -2.328125 7.984375 -2.328125q3.234375 0 5.765625 1.375q2.53125 1.359375 4.109375 3.546875l0 -17.71875l6.0312805 0l0 49.39064l-5.6250305 0zm-19.171875 -17.85939q0 6.8750153 2.890625 10.281265q2.90625 3.40625 6.84375 3.40625q3.96875 0 6.75 -3.25q2.78125 -3.265625 2.78125 -9.92189q0 -7.359375 -2.828125 -10.78125q-2.828125 -3.4375 -6.96875 -3.4375q-4.046875 0 -6.765625 3.296875q-2.703125 3.296875 -2.703125 10.40625zm32.260162 -0.03125q0 -9.9375 5.515625 -14.71875q4.625 -3.984375 11.25 -3.984375q7.390625 0 12.0625 4.84375q4.6875 4.828125 4.6875 13.359375q0 6.9062653 -2.078125 10.85939q-2.0625 3.953125 -6.03125 6.15625q-3.953125 2.1875 -8.640625 2.1875q-7.5 0 -12.140625 -4.8125q-4.625 -4.828125 -4.625 -13.89064zm6.234375 0q0 6.8750153 2.984375 10.29689q3.0 3.421875 7.546875 3.421875q4.515625 0 7.515625 -3.4375q3.0 -3.4375 3.0 -10.48439q0 -6.640625 -3.015625 -10.046875q-3.015625 -3.421875 -7.5 -3.421875q-4.546875 0 -7.546875 3.40625q-2.984375 3.390625 -2.984375 10.265625zm77.17798 13.48439q-3.359375 2.859375 -6.484375 4.046875q-3.109375 1.171875 -6.6875 1.171875q-5.890625 0 -9.0625 -2.875q-3.15625 -2.890625 -3.15625 -7.375q0 -2.625 1.1875 -4.7968903q1.203125 -2.171875 3.140625 -3.484375q1.9375 -1.3125 4.359375 -1.984375q1.78125 -0.484375 5.390625 -0.921875q7.34375 -0.875 10.8125 -2.078125q0.03125 -1.25 0.03125 -1.59375q0 -3.703125 -1.71875 -5.21875q-2.328125 -2.046875 -6.90625 -2.046875q-4.28125 0 -6.328125 1.5q-2.03125 1.484375 -3.0 5.296875l-5.9375 -0.8125q0.8125 -3.796875 2.65625 -6.140625q1.859375 -2.34375 5.359375 -3.609375q3.515625 -1.265625 8.125 -1.265625q4.59375 0 7.453125 1.078125q2.859375 1.078125 4.203125 2.71875q1.359375 1.625 1.890625 4.125q0.296875 1.546875 0.296875 5.59375l0 8.078125q0 8.468765 0.390625 10.70314q0.390625 2.234375 1.53125 4.296875l-6.328125 0q-0.9375 -1.890625 -1.21875 -4.40625zm-0.5 -13.54689q-3.296875 1.34375 -9.90625 2.28125q-3.734375 0.546875 -5.296875 1.21875q-1.546875 0.671875 -2.390625 1.9687653q-0.828125 1.296875 -0.828125 2.875q0 2.4375 1.828125 4.0625q1.84375 1.609375 5.375 1.609375q3.5 0 6.234375 -1.53125q2.734375 -1.546875 4.015625 -4.203125q0.96875 -2.046875 0.96875 -6.0625153l0 -2.21875zm15.713257 31.67189l0 -49.500015l5.53125 0l0 4.65625q1.953125 -2.734375 4.40625 -4.09375q2.46875 -1.375 5.96875 -1.375q4.578186 0 8.078186 2.359375q3.515625 2.359375 5.296875 6.65625q1.78125 4.296875 1.78125 9.421875q0 5.4843903 -1.96875 9.89064q-1.96875 4.390625 -5.734375 6.734375q-3.750061 2.34375 -7.890686 2.34375q-3.03125 0 -5.453125 -1.28125q-2.40625 -1.28125 -3.953125 -3.234375l0 17.421875l-6.0625 0zm5.5 -31.406265q0 6.9062653 2.796875 10.218765q2.796875 3.296875 6.765625 3.296875q4.046875 0 6.921936 -3.421875q2.875 -3.421875 2.875 -10.593765q0 -6.84375 -2.8125 -10.25q-2.812561 -3.40625 -6.718811 -3.40625q-3.875 0 -6.859375 3.625q-2.96875 3.625 -2.96875 10.53125zm33.057068 31.406265l0 -49.500015l5.53125 0l0 4.65625q1.953125 -2.734375 4.40625 -4.09375q2.46875 -1.375 5.96875 -1.375q4.578125 0 8.078125 2.359375q3.515625 2.359375 5.296875 6.65625q1.78125 4.296875 1.78125 9.421875q0 5.4843903 -1.96875 9.89064q-1.96875 4.390625 -5.734375 6.734375q-3.75 2.34375 -7.890625 2.34375q-3.03125 0 -5.453125 -1.28125q-2.40625 -1.28125 -3.953125 -3.234375l0 17.421875l-6.0625 0zm5.5 -31.406265q0 6.9062653 2.796875 10.218765q2.796875 3.296875 6.765625 3.296875q4.046875 0 6.921875 -3.421875q2.875 -3.421875 2.875 -10.593765q0 -6.84375 -2.8125 -10.25q-2.8125 -3.40625 -6.71875 -3.40625q-3.875 0 -6.859375 3.625q-2.96875 3.625 -2.96875 10.53125zm30.635132 7.0000153l6.0 -0.9375q0.5 3.609375 2.796875 5.53125q2.3125 1.921875 6.46875 1.921875q4.171875 0 6.1875 -1.703125q2.03125 -1.703125 2.03125 -4.0q0 -2.046875 -1.796875 -3.234375q-1.234375 -0.81251526 -6.1875 -2.0468903q-6.671875 -1.6875 -9.25 -2.921875q-2.578125 -1.234375 -3.90625 -3.40625q-1.328125 -2.171875 -1.328125 -4.796875q0 -2.390625 1.09375 -4.421875q1.09375 -2.046875 2.96875 -3.390625q1.421875 -1.046875 3.859375 -1.765625q2.453125 -0.734375 5.25 -0.734375q4.203125 0 7.390625 1.21875q3.1875 1.21875 4.703125 3.296875q1.515625 2.0625 2.078125 5.53125l-5.921875 0.8125q-0.40625 -2.765625 -2.34375 -4.3125q-1.9375 -1.5625 -5.46875 -1.5625q-4.1875 0 -5.96875 1.390625q-1.78125 1.375 -1.78125 3.234375q0 1.171875 0.734375 2.125q0.75 0.96875 2.328125 1.609375q0.90625 0.34375 5.359375 1.546875q6.4375 1.71875 8.96875 2.8125q2.546875 1.09375 4.0 3.1875q1.453125 2.09375 1.453125 5.1875153q0 3.03125 -1.78125 5.71875q-1.765625 2.671875 -5.109375 4.140625q-3.328125 1.46875 -7.53125 1.46875q-6.984375 0 -10.640625 -2.890625q-3.640625 -2.90625 -4.65625 -8.609375z" fill-rule="nonzero"></path><path fill="#000000" d="m153.23836 309.88617l0 -6.96875l6.0625 0l0 6.96875l-6.0625 0zm0 42.421875l0 -35.78125l6.0625 0l0 35.78125l-6.0625 0zm15.371246 0l0 -35.78125l5.453125 0l0 5.09375q3.953125 -5.90625 11.390625 -5.90625q3.234375 0 5.9375 1.171875q2.71875 1.15625 4.0625 3.046875q1.359375 1.890625 1.890625 4.484375q0.34375 1.671875 0.34375 5.890625l0 22.0l-6.0625 0l0 -21.765625q0 -3.703125 -0.71875 -5.53125q-0.703125 -1.84375 -2.5 -2.9375q-1.796875 -1.09375 -4.234375 -1.09375q-3.875 0 -6.6875 2.453125q-2.8125 2.453125 -2.8125 9.328125l0 19.546875l-6.0625 0zm51.807007 -5.421875l0.875 5.359375q-2.5625 0.53125 -4.59375 0.53125q-3.296875 0 -5.125 -1.046875q-1.8125 -1.046875 -2.5625 -2.734375q-0.734375 -1.703125 -0.734375 -7.171875l0 -20.578125l-4.4375 0l0 -4.71875l4.4375 0l0 -8.859375l6.03125 -3.640625l0 12.5l6.109375 0l0 4.71875l-6.109375 0l0 20.921875q0 2.59375 0.3125 3.34375q0.328125 0.734375 1.046875 1.171875q0.734375 0.4375 2.078125 0.4375q1.015625 0 2.671875 -0.234375zm30.511581 -6.09375l6.265625 0.765625q-1.484375 5.5 -5.5 8.53125q-4.0 3.03125 -10.234375 3.03125q-7.859375 0 -12.453125 -4.828125q-4.59375 -4.84375 -4.59375 -13.578125q0 -9.015625 4.640625 -14.0q4.65625 -5.0 12.0625 -5.0q7.1875 0 11.734375 4.890625q4.546875 4.890625 4.546875 13.75q0 0.53125 -0.03125 1.609375l-26.6875 0q0.328125 5.90625 3.328125 9.046875q3.0 3.125 7.484375 3.125q3.328125 0 5.6875 -1.75q2.359375 -1.765625 3.75 -5.59375zm-19.921875 -9.8125l19.984375 0q-0.40625 -4.515625 -2.296875 -6.765625q-2.890625 -3.515625 -7.5 -3.515625q-4.1875 0 -7.03125 2.796875q-2.84375 2.796875 -3.15625 7.484375zm33.91638 21.328125l0 -35.78125l5.453125 0l0 5.421875q2.09375 -3.796875 3.859375 -5.015625q1.765625 -1.21875 3.890625 -1.21875q3.0625 0 6.234375 1.953125l-2.09375 5.625q-2.21875 -1.3125 -4.4375 -1.3125q-2.0 0 -3.578125 1.203125q-1.578125 1.1875 -2.25 3.3125q-1.015625 3.234375 -1.015625 7.078125l0 18.734375l-6.0625 0zm46.493042 -4.40625q-3.359375 2.859375 -6.484375 4.046875q-3.109375 1.171875 -6.6875 1.171875q-5.890625 0 -9.0625 -2.875q-3.15625 -2.890625 -3.15625 -7.375q0 -2.625 1.1875 -4.796875q1.203125 -2.171875 3.140625 -3.484375q1.9375 -1.3125 4.359375 -1.984375q1.78125 -0.484375 5.390625 -0.921875q7.34375 -0.875 10.8125 -2.078125q0.03125 -1.25 0.03125 -1.59375q0 -3.703125 -1.71875 -5.21875q-2.328125 -2.046875 -6.90625 -2.046875q-4.28125 0 -6.328125 1.5q-2.03125 1.484375 -3.0 5.296875l-5.9375 -0.8125q0.8125 -3.796875 2.65625 -6.140625q1.859375 -2.34375 5.359375 -3.609375q3.515625 -1.265625 8.125 -1.265625q4.59375 0 7.453125 1.078125q2.859375 1.078125 4.203125 2.71875q1.359375 1.625 1.890625 4.125q0.296875 1.546875 0.296875 5.59375l0 8.078125q0 8.46875 0.390625 10.703125q0.390625 2.234375 1.53125 4.296875l-6.328125 0q-0.9375 -1.890625 -1.21875 -4.40625zm-0.5 -13.546875q-3.296875 1.34375 -9.90625 2.28125q-3.734375 0.546875 -5.296875 1.21875q-1.546875 0.671875 -2.390625 1.96875q-0.828125 1.296875 -0.828125 2.875q0 2.4375 1.828125 4.0625q1.84375 1.609375 5.375 1.609375q3.5 0 6.234375 -1.53125q2.734375 -1.546875 4.015625 -4.203125q0.96875 -2.046875 0.96875 -6.0625l0 -2.21875zm39.057007 4.84375l5.96875 0.78125q-0.96875 6.15625 -5.0 9.65625q-4.03125 3.484375 -9.890625 3.484375q-7.34375 0 -11.8125 -4.796875q-4.453125 -4.8125 -4.453125 -13.765625q0 -5.796875 1.90625 -10.140625q1.921875 -4.359375 5.84375 -6.53125q3.9375 -2.171875 8.546875 -2.171875q5.828125 0 9.53125 2.953125q3.71875 2.953125 4.75 8.375l-5.890625 0.90625q-0.84375 -3.609375 -2.984375 -5.421875q-2.140625 -1.828125 -5.171875 -1.828125q-4.578125 0 -7.453125 3.296875q-2.859375 3.28125 -2.859375 10.390625q0 7.203125 2.765625 10.484375q2.765625 3.265625 7.21875 3.265625q3.5625 0 5.953125 -2.1875q2.390625 -2.203125 3.03125 -6.75zm24.570312 7.6875l0.875 5.359375q-2.5625 0.53125 -4.59375 0.53125q-3.296875 0 -5.125 -1.046875q-1.8125 -1.046875 -2.5625 -2.734375q-0.734375 -1.703125 -0.734375 -7.171875l0 -20.578125l-4.4375 0l0 -4.71875l4.4375 0l0 -8.859375l6.03125 -3.640625l0 12.5l6.109375 0l0 4.71875l-6.109375 0l0 20.921875q0 2.59375 0.3125 3.34375q0.328125 0.734375 1.046875 1.171875q0.734375 0.4375 2.078125 0.4375q1.015625 0 2.671875 -0.234375zm31.882538 5.421875l-10.953125 -35.78125l6.265625 0l5.6875 20.65625l2.125 7.671875q0.140625 -0.5625 1.859375 -7.375l5.6875 -20.953125l6.234375 0l5.359375 20.75l1.78125 6.84375l2.0625 -6.90625l6.125 -20.6875l5.90625 0l-11.1875 35.78125l-6.296875 0l-5.703125 -21.421875l-1.375 -6.109375l-7.25 27.53125l-6.328125 0zm43.488434 -42.421875l0 -6.96875l6.0625 0l0 6.96875l-6.0625 0zm0 42.421875l0 -35.78125l6.0625 0l0 35.78125l-6.0625 0zm28.621246 -5.421875l0.875 5.359375q-2.5625 0.53125 -4.59375 0.53125q-3.296875 0 -5.125 -1.046875q-1.8125 -1.046875 -2.5625 -2.734375q-0.734375 -1.703125 -0.734375 -7.171875l0 -20.578125l-4.4375 0l0 -4.71875l4.4375 0l0 -8.859375l6.03125 -3.640625l0 12.5l6.109375 0l0 4.71875l-6.109375 0l0 20.921875q0 2.59375 0.3125 3.34375q0.328125 0.734375 1.046875 1.171875q0.734375 0.4375 2.078125 0.4375q1.015625 0 2.671875 -0.234375zm6.0115967 5.421875l0 -49.390625l6.0625 0l0 17.71875q4.25 -4.921875 10.71875 -4.921875q3.96875 0 6.90625 1.578125q2.9375 1.5625 4.1875 4.328125q1.265625 2.75 1.265625 8.015625l0 22.671875l-6.0625 0l0 -22.671875q0 -4.546875 -1.96875 -6.609375q-1.96875 -2.078125 -5.578125 -2.078125q-2.6875 0 -5.0625 1.390625q-2.375 1.390625 -3.390625 3.796875q-1.015625 2.390625 -1.015625 6.59375l0 19.578125l-6.0625 0zm71.16235 0l0 -43.5625l-16.265625 0l0 -5.828125l39.140625 0l0 5.828125l-16.34375 0l0 43.5625l-6.53125 0zm53.50464 -11.515625l6.265625 0.765625q-1.484375 5.5 -5.5 8.53125q-4.0 3.03125 -10.234375 3.03125q-7.859375 0 -12.453125 -4.828125q-4.59375 -4.84375 -4.59375 -13.578125q0 -9.015625 4.640625 -14.0q4.65625 -5.0 12.0625 -5.0q7.1875 0 11.734375 4.890625q4.546875 4.890625 4.546875 13.75q0 0.53125 -0.03125 1.609375l-26.6875 0q0.328125 5.90625 3.328125 9.046875q3.0 3.125 7.484375 3.125q3.328125 0 5.6875 -1.75q2.359375 -1.765625 3.75 -5.59375zm-19.921875 -9.8125l19.984375 0q-0.40625 -4.515625 -2.296875 -6.765625q-2.890625 -3.515625 -7.5 -3.515625q-4.1875 0 -7.03125 2.796875q-2.84375 2.796875 -3.15625 7.484375zm33.91638 21.328125l0 -35.78125l5.453125 0l0 5.421875q2.09375 -3.796875 3.859375 -5.015625q1.765625 -1.21875 3.890625 -1.21875q3.0625 0 6.234375 1.953125l-2.09375 5.625q-2.21875 -1.3125 -4.4375 -1.3125q-2.0 0 -3.578125 1.203125q-1.578125 1.1875 -2.25 3.3125q-1.015625 3.234375 -1.015625 7.078125l0 18.734375l-6.0625 0zm23.149292 0l0 -35.78125l5.421875 0l0 5.015625q1.6875 -2.625 4.484375 -4.21875q2.796875 -1.609375 6.375 -1.609375q3.96875 0 6.515625 1.65625q2.546875 1.65625 3.578125 4.609375q4.25 -6.265625 11.0625 -6.265625q5.3125 0 8.171875 2.953125q2.875 2.953125 2.875 9.078125l0 24.5625l-6.03125 0l0 -22.546875q0 -3.625 -0.59375 -5.21875q-0.578125 -1.609375 -2.140625 -2.578125q-1.546875 -0.984375 -3.640625 -0.984375q-3.765625 0 -6.265625 2.515625q-2.484375 2.5 -2.484375 8.03125l0 20.78125l-6.0625 0l0 -23.25q0 -4.046875 -1.484375 -6.0625q-1.484375 -2.015625 -4.859375 -2.015625q-2.5625 0 -4.734375 1.34375q-2.171875 1.34375 -3.15625 3.9375q-0.96875 2.59375 -0.96875 7.484375l0 18.5625l-6.0625 0zm57.782104 -42.421875l0 -6.96875l6.0625 0l0 6.96875l-6.0625 0zm0 42.421875l0 -35.78125l6.0625 0l0 35.78125l-6.0625 0zm28.621338 -5.421875l0.875 5.359375q-2.5625 0.53125 -4.59375 0.53125q-3.296875 0 -5.125 -1.046875q-1.8125 -1.046875 -2.5625 -2.734375q-0.734375 -1.703125 -0.734375 -7.171875l0 -20.578125l-4.4375 0l0 -4.71875l4.4375 0l0 -8.859375l6.03125 -3.640625l0 12.5l6.109375 0l0 4.71875l-6.109375 0l0 20.921875q0 2.59375 0.3125 3.34375q0.328125 0.734375 1.046875 1.171875q0.734375 0.4375 2.078125 0.4375q1.015625 0 2.671875 -0.234375zm30.511597 -6.09375l6.265625 0.765625q-1.484375 5.5 -5.5 8.53125q-4.0 3.03125 -10.234375 3.03125q-7.859375 0 -12.453125 -4.828125q-4.59375 -4.84375 -4.59375 -13.578125q0 -9.015625 4.640625 -14.0q4.65625 -5.0 12.0625 -5.0q7.1875 0 11.734375 4.890625q4.546875 4.890625 4.546875 13.75q0 0.53125 -0.03125 1.609375l-26.6875 0q0.328125 5.90625 3.328125 9.046875q3.0 3.125 7.484375 3.125q3.328125 0 5.6875 -1.75q2.359375 -1.765625 3.75 -5.59375zm-19.921875 -9.8125l19.984375 0q-0.40625 -4.515625 -2.296875 -6.765625q-2.890625 -3.515625 -7.5 -3.515625q-4.1875 0 -7.03125 2.796875q-2.84375 2.796875 -3.15625 7.484375zm45.338257 9.171875q-0.03125 -1.21875 -0.03125 -1.828125q0 -3.5625 1.0 -6.15625q0.75 -1.96875 2.390625 -3.953125q1.21875 -1.4375 4.359375 -4.21875q3.15625 -2.78125 4.09375 -4.4375q0.953125 -1.65625 0.953125 -3.609375q0 -3.53125 -2.765625 -6.203125q-2.765625 -2.6875 -6.765625 -2.6875q-3.875 0 -6.46875 2.4375q-2.59375 2.421875 -3.40625 7.578125l-6.234375 -0.75q0.84375 -6.90625 5.0 -10.578125q4.171875 -3.671875 11.0 -3.671875q7.25 0 11.5625 3.953125q4.3125 3.9375 4.3125 9.53125q0 3.234375 -1.515625 5.96875q-1.515625 2.71875 -5.9375 6.625q-2.953125 2.625 -3.875 3.875q-0.90625 1.25 -1.34375 2.875q-0.4375 1.609375 -0.5 5.25l-5.828125 0zm-0.375 12.15625l0 -6.90625l6.90625 0l0 6.90625l-6.90625 0z" fill-rule="nonzero"></path></g></svg>

